<?xml version="1.0" standalone="no"?>
<!DOCTYPE svg PUBLIC "-//W3C//DTD SVG 1.1//EN" "http://www.w3.org/Graphics/SVG/1.1/DTD/svg11.dtd" >
<svg xmlns="http://www.w3.org/2000/svg">
<metadata>
Created by FontPrep 20130207 at Mon Sep 29 16:18:38 2014
 By Ian Lewis
copyright missing
</metadata>
<defs>
<font id="036d416f8a454ef4d7b9672c50fe4d9a" horiz-adv-x='1024' >
  <font-face 
    font-family="UBSALL-Regular"
    font-weight="400"
    font-stretch="normal"
    units-per-em="2048"
    panose-1="0 0 5 0 0 0 0 0 0 0"
    ascent="1638"
    descent="-410"
    x-height="704"
    cap-height="512"
    bbox="-64 -512 2432 2048"
    underline-thickness="50"
    underline-position="-50"
    unicode-range="U+0020-25CA"
  />
<missing-glyph horiz-adv-x="500" 
d="M50 605v-510l170 255zM80 50h340l-170 255zM280 350l170 -255v510zM250 395l170 255h-340zM0 0v700h500v-700h-500z" />
    <glyph glyph-name=".notdef" horiz-adv-x="500" 
d="M50 605v-510l170 255zM80 50h340l-170 255zM280 350l170 -255v510zM250 395l170 255h-340zM0 0v700h500v-700h-500z" />
    <glyph glyph-name=".null" horiz-adv-x="0" 
 />
    <glyph glyph-name="nonmarkingreturn" horiz-adv-x="682" 
 />
    <glyph glyph-name="space" unicode=" " 
 />
    <glyph glyph-name="exclam" unicode="!" 
d="M1024 512q48 0 88 -40t40 -88t-40 -88t-88 -40t-88 40t-40 88t40 88t88 40zM1038 1376q58 0 70 -4t12 -28v-704h-192l-32 704q0 12 5 18t24 10t37 4h76z" />
    <glyph glyph-name="quotedbl" unicode="&#x22;" horiz-adv-x="600" 
 />
    <glyph glyph-name="numbersign" unicode="#" 
d="M1216 832q-28 0 -64 32q0 81 27 91q13 5 37 5q0 16 -16 32t-16 32q0 54 46 107t124 53t130 -52t52 -108q0 -16 -16 -32t-16 -32q24 0 28 -22t4 -50t-2 -33t-18 -14t-44 -9v-192q0 -32 97 -63t104 -39t15 -18t8 -40q32 -32 32 -192v-32h-384v320q-24 24 -36 32t-60 32v96
q-32 0 -32 96zM608 1120q0 56 52 108t140 52q120 0 152 -108q8 -26 8 -52v-96q28 0 31 -32q1 -10 1 -34t-17 -39q-14 -9 -15 9q0 -112 -32 -160v-96q32 -32 96 -32q66 -22 131 -61t95 -69t30 -222v-32h-960v64q0 160 32 192q0 22 72 62t152 66q56 0 96 32v96q-32 32 -64 160
q0 -20 -13 -11q-23 20 -18 75q3 32 31 32v96z" />
    <glyph glyph-name="dollar" unicode="$" horiz-adv-x="600" 
 />
    <glyph glyph-name="percent" unicode="%" horiz-adv-x="600" 
 />
    <glyph glyph-name="ampersand" unicode="&#x26;" horiz-adv-x="600" 
 />
    <glyph glyph-name="quotesingle" unicode="'" horiz-adv-x="600" 
 />
    <glyph glyph-name="parenleft" unicode="(" horiz-adv-x="1152" 
d="M1152 1280l-640 -640l640 -640l-256 -256l-896 896l896 896z" />
    <glyph glyph-name="parenright" unicode=")" horiz-adv-x="1152" 
d="M256 1536l896 -896l-896 -896l-256 256l640 640l-640 640z" />
    <glyph glyph-name="asterisk" unicode="*" 
d="M1024 256q108 0 182 74t74 182t-74 182t-182 74t-182 -74t-74 -182t74 -182t182 -74zM1728 640q24 0 44 -20t20 -44v-128q0 -24 -20 -44t-44 -20h-192q-16 -16 -32 -64t-32 -64l144 -144q21 -27 18 -54t-18 -42l-96 -96q-15 -15 -42 -18t-54 18l-144 144q-22 -22 -63 -37
t-65 -27v-192q0 -24 -20 -44t-44 -20h-128q-24 0 -44 20t-20 44v192q-16 16 -64 32t-64 32l-144 -144q-27 -21 -54 -18t-42 18l-96 96q-15 15 -18 42t18 54l144 144q-16 16 -32 64t-32 64h-192q-24 0 -44 20t-20 44v128q0 24 20 44t44 20h192q12 24 27 65t37 63l-144 144
q-21 27 -18 54t18 42l96 96q15 15 42 18t54 -18l144 -144q16 16 64 32t64 32v192q0 24 20 44t44 20h128q24 0 44 -20t20 -44v-192q24 -12 65 -27t63 -37l144 144q15 15 42 18t54 -18l96 -96q21 -27 18 -54t-18 -42l-144 -144q22 -22 37 -63t27 -65h192z" />
    <glyph glyph-name="plus" unicode="+" horiz-adv-x="600" 
 />
    <glyph glyph-name="comma" unicode="," 
d="M1088 864l96 96l-96 96l-96 -96zM872 548q0 84 -72 156q-48 48 -128 48t-128 -48v-32l-96 96l352 384l96 -96l96 96l-96 64l352 384l96 -96q-48 -48 -48 -132t48 -156q144 -96 288 0l96 -64l-384 -384l-96 96l-64 -96l64 -96l-352 -352l-96 96q72 48 72 132z" />
    <glyph glyph-name="hyphen" unicode="-" horiz-adv-x="600" 
 />
    <glyph glyph-name="period" unicode="." 
d="M1536 480q0 -96 -64 -160t-160 -64t-160 64t-64 160v64l-256 160q-17 -8 -42 -22l-50 -28t-68 -14q-96 0 -160 64t-64 160t64 160t160 64q49 0 98 -28q48 -28 62 -36l256 192v32q0 96 64 160t160 64t160 -64t64 -160t-64 -160t-160 -64q-49 0 -98 28q-48 28 -62 36
l-256 -160v-96l256 -192q17 9 42 23q25 13 50 27q25 13 68 14q96 0 160 -64t64 -160z" />
    <glyph glyph-name="slash" unicode="/" horiz-adv-x="600" 
 />
    <glyph glyph-name="zero" unicode="0" 
d="M192 0q0 132 9 260t23 156q14 44 72 76t156 72t156 76q136 54 204 86l20 10v160q-11 3 -30 19q-66 56 -66 173q-28 0 -62 42t-34 86q0 128 64 128v192q0 100 90 178t230 78t230 -78t90 -178v-192q64 0 64 -128q0 -44 -34 -86t-62 -42q-18 -90 -46 -135t-50 -57v-160
q64 -32 224 -96q58 -36 150 -76t148 -73q58 -33 86 -75q28 -56 31 -326l1 -90h-1664z" />
    <glyph glyph-name="one" unicode="1" 
d="M672 1216q0 128 32 128v160q0 122 89 205t231 83t231 -83t89 -205v-160q32 0 32 -128q0 -48 -20 -88t-44 -40q-14 -57 -38 -105t-41 -67l-17 -20v-160q32 -32 180 -92t262 -122q112 -62 137 -112t52 -320l9 -90h-704l-64 352l96 128l-128 192h-64l-128 -192l96 -128
l-64 -352h-704q32 352 64 416q15 43 53 68q37 26 59 40t65 32q43 19 65 28t74 29t134 53t126 70v160q-23 23 -53 79q-29 56 -43 113q-24 0 -44 40t-20 88z" />
    <glyph glyph-name="two" unicode="2" horiz-adv-x="2432" 
d="M2016 992q0 -112 -32 -160v-128q0 -40 82 -90q49 -30 123 -53t99 -33t32 -14q6 -4 22 -13t20 -15t15 -20q10 -13 23 -50q32 -64 32 -352v-64h-640v64q0 320 -4 392t-22 108q-18 35 -32 51q-14 17 -28 25t-46 27t-60 37v128q-32 32 -64 160q-22 0 -43 34t-21 59v35t2 29
q6 67 62 67q0 32 -16 64t-16 64q0 104 76 180t212 76t212 -76t76 -180q0 -32 -16 -64t-16 -64q24 0 44 -40t20 -79t-26 -72t-70 -33zM838 1792q74 0 138 -31t100 -77q76 -96 76 -180q0 -36 -16 -92t-16 -68q32 0 42 -15q17 -26 20 -54q2 -27 2 -67t-20 -60t-44 4
q0 -108 -21 -158q-21 -51 -43 -66v-192q64 -32 192 -64q321 -129 384 -192q32 -64 32 -416v-64h-1632v128q0 288 28 344t148 116t240 84q116 29 172 55l20 9v192q-38 13 -74 127q-14 43 -22 97q-30 -27 -54 26q-10 21 -10 40v30t2 29q6 67 62 67q0 12 -16 68t-16 92t24 86
q24 48 63 94q41 46 103 76q62 32 136 32z" />
    <glyph glyph-name="three" unicode="3" horiz-adv-x="600" 
 />
    <glyph glyph-name="four" unicode="4" 
d="M35 0q-7 0 -8 4q-59 148 10 225t98 93q5 4 13 12t11 12q3 2 11 14t12 14t12 0t12 -2t10 -4q7 -4 12 -6q4 -2 18 -7q14 -6 18 -7q-10 26 -22 52t-17 38t8 14l16 -1q10 0 12 5q2 10 -3 18t-15 33q-10 26 -7 39q2 13 14 20t23 2l5 74q0 4 6 14l14 27q2 3 7 6t6 6l3 9t2 9
q2 2 10 7q8 6 12 14t9 12q7 2 13 6t18 3l21 5q29 0 47 7q30 -1 46 -9t21 -10t13 -9q8 -8 22 -10q14 -3 20 -9q30 -30 31 -46q1 -17 6 -23t9 -20q4 -15 6 -20t-1 -10t-1 -12t3 -9l-1 -10q2 -12 -2 -29t-6 -35t-4 -22q0 -4 -4 -12t-9 -14q-5 -8 -9 -14t-8 -32t-18 -53
q-12 -27 -21 -36t10 -15q41 -14 55 -22t34 -28t22 -28q4 -8 7 -20q3 -11 15 -36t20 -60q9 -35 13 -39l14 -18q17 -21 38 -57h-732z" />
    <glyph glyph-name="five" unicode="5" horiz-adv-x="600" 
d="M1792 0v-256h-1408v256h640v128h-768v256h1056q96 144 96 306t-29 262q-29 98 -99 168l-192 -320l-96 64l-224 -320l-320 224l224 320l-128 64l512 768l128 -96l128 224l288 -192l-128 -224l96 -64l-96 -128q146 -122 233 -326t87 -442q-46 -417 -352 -672h352z" />
    <glyph glyph-name="six" unicode="6" horiz-adv-x="600" 
 />
    <glyph glyph-name="seven" unicode="7" 
 />
    <glyph glyph-name="eight" unicode="8" 
d="M385 769q158 0 271 -86q112 -85 112 -205t-109 -203t-275 -83l-191 -192l-1 224q-94 47 -143 114t-48 140q0 119 113 205t271 86z" />
    <glyph glyph-name="nine" unicode="9" 
d="M1344 320v128h-128v-128h128zM960 448v-128h128v128h-128zM704 448v-128h128v128h-128zM768 64q-256 102 -256 317q0 113 68 201t184 137q117 49 260 49t260 -49q116 -49 184 -137t68 -198t-68 -198t-184 -137q-117 -49 -260 -49l-272 -256z" />
    <glyph glyph-name="colon" unicode=":" 
d="M384 960q0 -168 124 -292t292 -124t292 124t124 292t-124 292t-292 124t-292 -124t-124 -292zM1584 8q-56 0 -80 24l-416 416q-195 -64 -301 -64q-105 0 -211 46t-184 122q-76 78 -122 184t-46 224t46 224t122 184q78 76 184 122t224 46t224 -46t184 -122
q76 -78 122 -184t46 -199t-22 -164t-26 -93l16 -24l64 -32l352 -352q96 -96 0 -192l-96 -96q-24 -24 -80 -24z" />
    <glyph glyph-name="semicolon" unicode=";" 
d="M1024 512l64 -192h192l-160 -112l64 -192l-160 128l-160 -128l64 192l-160 112h192z" />
    <glyph glyph-name="less" unicode="&#x3c;" horiz-adv-x="600" 
 />
    <glyph glyph-name="equal" unicode="=" horiz-adv-x="0" 
d="M832 455q0 23 10 49t22 38q83 98 144 98q40 0 80 -20q52 -26 90 -71t38 -101v-32q-32 -36 -32 -64q-32 -32 -32 -64q-24 -24 -28 -32t-4 -32v-32l-32 -32h-160v64q-32 36 -34 68t-30 60q0 16 -16 48t-16 55z" />
    <glyph glyph-name="greater" unicode="&#x3e;" 
d="M1120 64q0 -32 -38 -32q-18 0 -22 -4t-4 -28h-64q0 24 -4 28t-28 4h-32v128q0 -14 10 -23t22 -9h128l32 32v-96z" />
    <glyph glyph-name="question" unicode="?" 
d="M960 544q128 0 128 -160q0 -54 -30 -91t-99 -37q-67 0 -113 39t-46 100t44 105t116 44zM680 1388q0 20 24 20q46 44 128 70t160 26q170 0 261 -73t91 -201t-49 -197q-49 -68 -102 -117q-53 -48 -79 -76q-58 -62 -58 -136q0 -24 -12 -28t-84 -4h-32q-48 0 -56 4t-8 52
t26 108q26 61 64 103q38 41 76 79q90 90 90 166q0 128 -160 128q-46 0 -90 -19t-70 -45q-24 0 -32 8t-32 56l-32 32q-24 24 -24 44z" />
    <glyph glyph-name="at" unicode="@" horiz-adv-x="600" 
 />
    <glyph glyph-name="A" unicode="A" 
 />
    <glyph glyph-name="B" unicode="B" 
 />
    <glyph glyph-name="C" unicode="C" 
 />
    <glyph glyph-name="D" unicode="D" 
 />
    <glyph glyph-name="E" unicode="E" 
 />
    <glyph glyph-name="F" unicode="F" 
 />
    <glyph glyph-name="G" unicode="G" horiz-adv-x="600" 
 />
    <glyph glyph-name="H" unicode="H" horiz-adv-x="600" 
 />
    <glyph glyph-name="I" unicode="I" horiz-adv-x="600" 
 />
    <glyph glyph-name="J" unicode="J" horiz-adv-x="600" 
 />
    <glyph glyph-name="K" unicode="K" horiz-adv-x="600" 
 />
    <glyph glyph-name="L" unicode="L" 
 />
    <glyph glyph-name="M" unicode="M" horiz-adv-x="600" 
 />
    <glyph glyph-name="N" unicode="N" 
d="M768 608v-544q0 -32 32 -64h32l544 288q14 0 23 10t9 22q-4 32 -32 32l-544 288h-32q-32 -4 -32 -32zM1120 -256h-192q-128 0 -224 32q-224 0 -320 32q-32 4 -32 32q-14 0 -23 10t-9 22q-64 320 -64 384v128q0 12 16 116t16 154t32 114q4 32 32 32q0 14 10 23t22 9
q48 16 144 32t144 32h704q48 -16 144 -32t144 -32q32 -4 32 -32q14 0 23 -10t9 -22q14 -40 30 -114t34 -110v-416q-16 -48 -32 -128l-33 -136q-1 -8 -9 -16t-22 -8q0 -14 -10 -23t-22 -9q-96 -32 -288 -32q-96 -32 -256 -32z" />
    <glyph glyph-name="O" unicode="O" 
d="M576 512h832l-384 -288zM448 -192v704l576 -384l512 384v-704h-1088z" />
    <glyph glyph-name="P" unicode="P" 
d="M1408 0v-256q-153 0 -295 62q-141 62 -245 166t-166 245q-62 142 -62 295t62 295q62 141 166 245t245 166q142 62 295 62v-256q-216 0 -364 -148t-148 -364t148 -364t364 -148z" />
    <glyph glyph-name="Q" unicode="Q" 
d="M768 768v-128h512v128q0 96 -80 176t-176 80t-176 -80t-80 -176zM1408 768v-128q48 0 88 -40t40 -88v-640q0 -48 -40 -88t-88 -40h-768q-48 0 -88 40t-40 88v640q0 48 40 88t88 40v128q0 168 108 276t276 108t276 -108t108 -276z" />
    <glyph glyph-name="R" unicode="R" 
d="M1088 -64v224q22 0 43 34t21 72t-40 78t-88 40t-88 -40t-40 -78t21 -72t43 -34v-224h128zM768 768v-128h512v128q0 96 -80 176t-176 80t-176 -80t-80 -176zM1408 768v-128q48 0 88 -40t40 -88v-640q0 -48 -40 -88t-88 -40h-768q-48 0 -88 40t-40 88v640q0 48 40 88t88 40
v128q0 168 108 276t276 108t276 -108t108 -276z" />
    <glyph glyph-name="S" unicode="S" 
d="M256 0h1536v-256h-1536v256zM256 512h1536v-256h-1536v256zM256 1024h1536v-256h-1536v256z" />
    <glyph glyph-name="T" unicode="T" 
d="M896 -256v768h-768v256h768v768h256v-768h768v-256h-768v-768h-256z" />
    <glyph glyph-name="U" unicode="U" 
d="M1920 256h-1792v256h1792v-256z" />
    <glyph glyph-name="V" unicode="V" 
d="M832 -128v640l-576 768h1536l-576 -768v-640h-384z" />
    <glyph glyph-name="W" unicode="W" 
d="M1280 256v-128h-128v128h128zM1024 256v-128h-128v128h128zM768 256v-128h-128v128h128zM1280 512v-128h-128v128h128zM1024 512v-128h-128v128h128zM768 512v-128h-128v128h128zM1280 768v-128h-128v128h128zM1024 768v-128h-128v128h128zM1408 0v896h-896v-896h896z
M1408 1152h256v-1408h-1408v1408h256v128h256v-128h384v128h256v-128z" />
    <glyph glyph-name="X" unicode="X" 
d="M768 672q-64 0 -64 142q0 82 32 82v160q0 82 78 153t200 71q124 0 211 -74t87 -150v-160q32 0 32 -82q0 -142 -64 -142q-27 -111 -64 -160v-128q12 -36 94 -74q30 -14 66 -22q62 -37 142 -68q80 -30 132 -56q50 -26 78 -68v-352h-1408v352q21 62 139 99q119 37 213 93
q123 31 160 96v128q-38 12 -57 94q-7 30 -7 66z" />
    <glyph glyph-name="Y" unicode="Y" horiz-adv-x="600" 
 />
    <glyph glyph-name="Z" unicode="Z" 
d="M768 672q-64 0 -64 142q0 82 32 82v160q0 82 78 153t200 71q124 0 211 -74t87 -150v-160q32 0 32 -82q0 -142 -64 -142q-27 -111 -64 -160v-128q12 -36 94 -74q30 -14 66 -22q62 -37 142 -68q80 -30 132 -56q50 -26 78 -68v-352h-1408v352q21 62 139 99q119 37 213 93
q123 31 160 96v128q-38 12 -57 94q-7 30 -7 66z" />
    <glyph glyph-name="bracketleft" unicode="[" 
d="M1024 1280h128q168 0 276 -108t108 -276v-896h-128v896q0 96 -80 176t-176 80h-128q-96 0 -176 -80t-80 -176v-896q0 -79 66 -114q26 -14 62 -14h128q79 0 114 66q14 26 14 62v768h-128v-768h-128v768q0 79 66 114q26 14 62 14h128q79 0 114 -66q14 -26 14 -62v-768
q0 -80 -48 -154q-65 -102 -208 -102h-128q-80 0 -154 48q-102 65 -102 208v896q0 168 108 276t276 108z" />
    <glyph glyph-name="backslash" unicode="\" 
d="M96 -128q-134 0 -152 95q-10 50 24 129l864 1664q30 78 96 106t138 0t118 -106l896 -1664q64 -140 -10 -194q-40 -30 -118 -30h-1856z" />
    <glyph glyph-name="bracketright" unicode="]" horiz-adv-x="600" 
 />
    <glyph glyph-name="asciicircum" unicode="^" horiz-adv-x="600" 
 />
    <glyph glyph-name="underscore" unicode="_" 
d="M1024 256q-48 0 -88 40t-40 88t40 88t88 40t88 -40t40 -88t-40 -88t-88 -40zM1024 0q168 0 276 108t108 276t-108 276t-276 108t-276 -108t-108 -276t108 -276t276 -108zM1024 960q544 0 832 -576q-125 -250 -351 -413t-481 -163t-481 163t-351 413q125 250 351 413
t481 163z" />
    <glyph glyph-name="a" unicode="a" 
d="M1280 512v-768h-512v768h-512l768 896l768 -896h-512z" />
    <glyph glyph-name="b" unicode="b" 
d="M1280 640h512l-768 -896l-768 896h512v768h512v-768z" />
    <glyph glyph-name="c" unicode="c" 
d="M128 -256l896 1152l896 -1152h-1792z" />
    <glyph glyph-name="d" unicode="d" 
d="M1921 896l-896 -1152l-896 1152h1792z" />
    <glyph glyph-name="e" unicode="e" 
d="M1408 384v-768l-1024 384zM640 1152l1024 -384l-1024 -384v768z" />
    <glyph glyph-name="f" unicode="f" 
d="M1056 384l96 -96l96 96l-96 96zM992 480l64 64l-64 96l-96 -96zM1376 320l-192 -160l-384 -416l-96 96q106 106 77 226q-16 66 -77 126q-60 61 -126 77q-119 29 -226 -77l-96 96l448 448l96 -96l96 96l-96 96l448 448l96 -96q-106 -106 -77 -226q16 -66 77 -126
q60 -61 126 -77q119 -29 226 77l96 -96z" />
    <glyph glyph-name="g" unicode="g" horiz-adv-x="600" 
 />
    <glyph glyph-name="h" unicode="h" 
d="M1792 0v-256h-1408v256h640v128h-768v224h1024q100 150 118 246q10 50 10 152q0 242 -128 370l-192 -320l-160 96l-192 -320l-288 192l224 320l-128 64l512 768l128 -96l128 224l256 -160l-128 -224l128 -96l-96 -128q146 -122 233 -326t87 -442q-46 -417 -352 -672h352z
" />
    <glyph glyph-name="i" unicode="i" horiz-adv-x="600" 
 />
    <glyph glyph-name="j" unicode="j" horiz-adv-x="600" 
 />
    <glyph glyph-name="k" unicode="k" 
d="M1024 160q96 0 160 64t64 160t-64 160t-160 64t-160 -64t-64 -160t64 -160t160 -64zM1408 512h188q28 0 48 -20t20 -48v-120q0 -28 -20 -48t-48 -20h-188v-64l96 -128q48 -48 0 -96l-64 -64q-48 -48 -96 0l-128 96h-64v-188q0 -28 -20 -48t-48 -20h-120q-28 0 -48 20
t-20 48v188h-64l-128 -96q-48 -48 -96 0l-64 64q-48 48 0 96l96 128v64h-188q-28 0 -48 20t-20 48v120q0 28 20 48t48 20h188v64l-96 128q-48 48 0 96l64 64q48 48 96 0l128 -96h64v188q0 28 20 48t48 20h120q28 0 48 -20t20 -48v-188h64l128 96q48 48 96 0l64 -64
q48 -48 0 -96l-96 -128v-64z" />
    <glyph glyph-name="l" unicode="l" 
d="M832 -253l-512 640l128 128l384 -384l768 768l128 -128z" />
    <glyph glyph-name="m" unicode="m" 
d="M1024 256v-256q-153 0 -295 62q-141 62 -245 166t-166 245q-62 142 -62 295t62 295q62 141 166 245t245 166q142 62 295 62v-256q-216 0 -364 -148t-148 -364t148 -364t364 -148z" />
    <glyph glyph-name="n" unicode="n" 
d="M640 0h640v-256h-1024v768h384v-512zM768 128v768h1024v-768h-1024z" />
    <glyph glyph-name="o" unicode="o" 
d="M960 -64v320h-320v128h320v320h128v-320h320v-128h-320v-320h-128z" />
    <glyph glyph-name="p" unicode="p" 
 />
    <glyph glyph-name="q" unicode="q" horiz-adv-x="600" 
 />
    <glyph glyph-name="r" unicode="r" horiz-adv-x="600" 
 />
    <glyph glyph-name="s" unicode="s" 
 />
    <glyph glyph-name="t" unicode="t" 
d="M672 1216q0 128 32 128v160q0 122 89 205t231 83t231 -83t89 -205v-160q32 0 32 -128q0 -48 -20 -88t-44 -40q-14 -57 -38 -105t-41 -67l-17 -20v-160q32 -32 180 -92t262 -122q112 -62 137 -112t52 -320l9 -90h-1664q32 352 64 416q15 43 53 68q37 26 59 40t65 32
q43 19 65 28t74 29t134 53t126 70v160q-23 23 -53 79q-29 56 -43 113q-24 0 -44 40t-20 88z" />
    <glyph glyph-name="u" unicode="u" horiz-adv-x="1920" 
d="M1408 512q168 0 276 -108t108 -276t-108 -276t-276 -108q-96 0 -184 48t-144 138t-56 178t8 119q8 30 24 61l-288 192q-96 -96 -260 -96t-272 108t-108 276t108 276t272 108t260 -96l288 192q-29 59 -30 90q-2 31 -2 70q0 108 56 198t144 138t184 48q168 0 276 -108
t108 -276t-108 -276t-276 -108q-85 0 -133 22t-91 42l-320 -192q32 -32 32 -128t-32 -128l320 -192q131 64 224 64z" />
    <glyph glyph-name="v" unicode="v" horiz-adv-x="2800" 
d="M1152 384v-128h-512v128h512zM1024 768v-128h-384v128h384zM1280 1152v-128h-640v128h640zM2304 1280l128 -160l-768 -992l-480 608l128 160l352 -256zM1792 1664v-640h-256v384h-1152v-1408h1408v-256h-1664v1920h1664z" />
    <glyph glyph-name="w" unicode="w" 
d="M1664 640v256h-256v-256h256zM896 896v-256h256v256h-256zM384 896v-256h256v256h-256zM2048 768q0 -219 -134 -396q-134 -176 -362 -274q-226 -98 -496 -98l-544 -512v608q-240 96 -376 276t-136 396q0 164 80 308t216 244t325 158t403 58t403 -58t325 -158t216 -244
t80 -308z" />
    <glyph glyph-name="x" unicode="x" 
d="M384 1664h1280v-2176l-640 896l-640 -896v2176z" />
    <glyph glyph-name="y" unicode="y" 
d="M1920 128v-384h-1664v384h864q96 24 184 112t136 208q46 91 52 188t-20 164q-48 24 -76 52t-52 76l-192 -224l-96 64l-320 -416l-288 256l320 416l-96 64l608 768l96 -96l128 160l288 -224l-128 -160l96 -64l-160 -192q92 -24 142 -86t50 -138v-32q72 -144 72 -332
t-72 -404q-16 -32 -48 -80t-48 -80h224z" />
    <glyph glyph-name="z" unicode="z" 
 />
    <glyph glyph-name="braceleft" unicode="{" 
d="M1280 256v-128h-128v128h128zM1024 256v-128h-128v128h128zM768 256v-128h-128v128h128zM1280 512v-128h-128v128h128zM1024 512v-128h-128v128h128zM768 512v-128h-128v128h128zM1280 768v-128h-128v128h128zM1024 768v-128h-128v128h128zM1408 0v896h-896v-896h896z
M1408 1152h256v-1408h-1408v1408h256v128h256v-128h384v128h256v-128z" />
    <glyph glyph-name="bar" unicode="|" horiz-adv-x="600" 
 />
    <glyph glyph-name="braceright" unicode="}" 
d="M1024 96q96 0 96 96t-96 96t-96 -96t96 -96zM1088 -96q0 -28 -32 -32h-64q-12 0 -22 9t-10 23v64q-16 0 -32 16t-32 16l-32 -64h-32l-64 64v32l64 32q0 16 -16 32t-16 32h-64q-28 0 -32 32v64q0 12 9 22t23 10h64q0 16 16 32t16 32l-64 32v64l64 32h32l32 -64q16 0 32 16
t32 16v64q0 28 32 32h64q12 0 22 -9t10 -23v-64q16 0 32 -16t32 -16l32 64h64l32 -32v-64l-64 -32q0 -16 16 -32t16 -32h64q28 0 32 -32v-64q0 -12 -9 -22t-23 -10h-64q0 -16 -16 -32t-16 -32l64 -32v-32l-32 -64h-64l-32 64q-16 0 -32 -16t-32 -16v-64z" />
    <glyph glyph-name="asciitilde" unicode="~" 
d="M784 320l128 128l80 -64l160 144l144 -144l-48 -48l-96 96l-160 -128l-80 64l-96 -96z" />
    <glyph glyph-name="exclamdown" unicode="&#xa1;" 
d="M1280 768v-512l-768 256zM768 1408l768 -256l-768 -256v512z" />
    <glyph glyph-name="cent" unicode="&#xa2;" horiz-adv-x="600" 
d="M320 896h64q192 0 192 -192v-448h-64v448q0 48 -40 88t-88 40h-64q-48 0 -88 -40t-40 -88v-448q0 -39 33 -57q13 -7 31 -7h64q39 0 57 33q7 13 7 31v384h-64v-384h-64v384q0 39 33 57q13 7 31 7h64q39 0 57 -33q7 -13 7 -31v-384q0 -79 -66 -114q-26 -14 -62 -14h-64
q-79 0 -114 66q-14 26 -14 62v448q0 92 57 142t135 50z" />
    <glyph glyph-name="sterling" unicode="&#xa3;" horiz-adv-x="600" 
 />
    <glyph glyph-name="currency" unicode="&#xa4;" horiz-adv-x="600" 
 />
    <glyph glyph-name="yen" unicode="&#xa5;" horiz-adv-x="600" 
 />
    <glyph glyph-name="brokenbar" unicode="&#xa6;" horiz-adv-x="600" 
 />
    <glyph glyph-name="section" unicode="&#xa7;" horiz-adv-x="600" 
 />
    <glyph glyph-name="copyright" unicode="&#xa9;" horiz-adv-x="600" 
 />
    <glyph glyph-name="guillemotleft" unicode="&#xab;" 
d="M1536 0l-1152 576l1152 576v-1152z" />
    <glyph glyph-name="logicalnot" unicode="&#xac;" 
d="M1024 256l-256 -256l-128 128l256 256l-256 256l128 128l256 -256l256 256l128 -128l-256 -256l256 -256l-128 -128z" />
    <glyph glyph-name="registered" unicode="&#xae;" horiz-adv-x="600" 
 />
    <glyph glyph-name="degree" unicode="&#xb0;" horiz-adv-x="600" 
 />
    <glyph glyph-name="plusminus" unicode="&#xb1;" horiz-adv-x="600" 
 />
    <glyph glyph-name="paragraph" unicode="&#xb6;" horiz-adv-x="600" 
 />
    <glyph glyph-name="periodcentered" unicode="&#xb7;" horiz-adv-x="600" 
 />
    <glyph glyph-name="guillemotright" unicode="&#xbb;" 
d="M512 0v1152l1152 -576z" />
    <glyph glyph-name="questiondown" unicode="&#xbf;" 
d="M1792 896h-576l224 224q-73 72 -185 116t-231 44q-216 0 -364 -148t-148 -364t148 -364t364 -148q162 0 284 85t196 235l224 -96q-98 -220 -284 -350t-420 -130q-153 0 -295 62q-141 62 -245 166t-166 245q-62 142 -62 295t62 295q62 141 166 245t245 166q142 62 295 62
q320 0 576 -256l192 192v-576z" />
    <glyph glyph-name="multiply" unicode="&#xd7;" 
d="M1023 768l-768 -768l-256 256l768 768l-768 768l256 256l768 -768l768 768l256 -256l-768 -768l768 -768l-256 -256z" />
    <glyph glyph-name="divide" unicode="&#xf7;" horiz-adv-x="0" 
d="M1034 640q130 0 220 -78t90 -176t-100 -178t-220 -80l-192 -128v192q-54 27 -91 76t-37 116q0 96 100 176t230 80z" />
    <glyph glyph-name="endash" unicode="&#x2013;" 
d="M1024 896l896 -896l-256 -256l-640 640l-640 -640l-256 256z" />
    <glyph glyph-name="emdash" unicode="&#x2014;" 
d="M1664 896l256 -256l-896 -896l-896 896l256 256l640 -640z" />
    <glyph glyph-name="quoteleft" unicode="&#x2018;" horiz-adv-x="600" 
 />
    <glyph glyph-name="quoteright" unicode="&#x2019;" horiz-adv-x="600" 
 />
    <glyph glyph-name="quotesinglbase" unicode="&#x201a;" horiz-adv-x="600" 
 />
    <glyph glyph-name="quotedblleft" unicode="&#x201c;" horiz-adv-x="600" 
 />
    <glyph glyph-name="quotedblright" unicode="&#x201d;" horiz-adv-x="600" 
 />
    <glyph glyph-name="quotedblbase" unicode="&#x201e;" 
d="M1152 384l-160 -192l-160 192h320z" />
    <glyph glyph-name="dagger" unicode="&#x2020;" horiz-adv-x="600" 
 />
    <glyph glyph-name="daggerdbl" unicode="&#x2021;" horiz-adv-x="600" 
 />
    <glyph glyph-name="bullet" unicode="&#x2022;" 
d="M2112 960q0 -180 -54 -346t-154 -300t-234 -234t-300 -154t-346 -54t-346 54t-300 154t-234 234t-154 300t-54 346t54 346t154 300t234 234t300 154t346 54t346 -54t300 -154t234 -234t154 -300t54 -346z" />
    <glyph glyph-name="ellipsis" unicode="&#x2026;" 
d="M1024 1216q96 0 112 -4t16 -28v-896q0 -24 -16 -28t-112 -4t-112 4t-16 28v896q0 24 16 28t112 4zM1024 1664q72 0 116 -44t44 -105t-46 -100t-114 -39t-114 39t-46 100t44 105t116 44z" />
    <glyph glyph-name="perthousand" unicode="&#x2030;" horiz-adv-x="600" 
 />
    <glyph glyph-name="guilsinglleft" unicode="&#x2039;" 
d="M1280 1536l-768 -768l768 -768l-256 -256l-1024 1024l1024 1024z" />
    <glyph glyph-name="guilsinglright" unicode="&#x203a;" 
d="M1024 1792l1024 -1024l-1024 -1024l-256 256l768 768l-768 768z" />
    <glyph glyph-name="fraction" unicode="&#x2044;" horiz-adv-x="600" 
 />
    <glyph glyph-name="Euro" unicode="&#x20ac;" horiz-adv-x="600" 
 />
    <glyph glyph-name="trademark" unicode="&#x2122;" horiz-adv-x="2656" 
d="M896 -256v768h-768v256h768v768h256v-768h768v-256h-768v-768h-256z" />
    <glyph glyph-name="arrowleft" unicode="&#x2190;" horiz-adv-x="600" 
 />
    <glyph glyph-name="arrowup" unicode="&#x2191;" horiz-adv-x="600" 
 />
    <glyph glyph-name="arrowright" unicode="&#x2192;" horiz-adv-x="1152" 
d="M256 0v1024l640 -512z" />
    <glyph glyph-name="arrowdown" unicode="&#x2193;" horiz-adv-x="1152" 
d="M0 640h1024l-512 -640z" />
    <glyph glyph-name="arrowboth" unicode="&#x2194;" horiz-adv-x="600" 
 />
    <glyph glyph-name="arrowupdn" unicode="&#x2195;" horiz-adv-x="600" 
 />
    <glyph glyph-name="arrowupleft" unicode="&#x2196;" horiz-adv-x="600" 
 />
    <glyph glyph-name="arrowupright" unicode="&#x2197;" horiz-adv-x="600" 
 />
    <glyph glyph-name="arrowdownright" unicode="&#x2198;" horiz-adv-x="600" 
 />
    <glyph glyph-name="arrowdownleft" unicode="&#x2199;" horiz-adv-x="600" 
 />
    <glyph glyph-name="partialdiff" unicode="&#x2202;" horiz-adv-x="600" 
 />
    <glyph glyph-name="emptyset" unicode="&#x2205;" 
d="M992 400h16q44 0 60 33q4 7 4 19t-16 28t-48 16h-16v-96zM1008 544q44 0 64 -5t32 -27q32 -32 32 -64q0 -59 -64 -80l16 -32q12 -18 32 -51t32 -45q0 -12 -2 -14t-14 -2h-16q-32 0 -32 16q-12 0 -24 19q-13 19 -23 35t-17 26l-16 32h-16v-112q0 -16 -32 -16h-16
q-12 0 -14 2t-2 14v304h80z" />
    <glyph glyph-name="product" unicode="&#x220f;" horiz-adv-x="600" 
 />
    <glyph glyph-name="summation" unicode="&#x2211;" horiz-adv-x="600" 
 />
    <glyph glyph-name="minus" unicode="&#x2212;" 
d="M1024 640l-384 -384l-128 128l384 384l-384 384l128 128l384 -384l384 384l128 -128l-384 -384l384 -384l-128 -128z" />
    <glyph glyph-name="radical" unicode="&#x221a;" horiz-adv-x="600" 
 />
    <glyph glyph-name="infinity" unicode="&#x221e;" 
d="M1440 0q-32 0 -32 37q0 16 1 27q3 32 31 32h64q24 0 44 -20t20 -44q-36 -32 -64 -32h-64zM480 0q-32 0 -32 37q0 16 1 27q3 32 31 32h64q28 0 31 -32q1 -11 1 -32q-4 -32 -32 -32h-64zM672 32q0 96 44 184t116 136q28 28 72 30q45 2 88 2q181 0 288 -160q28 -56 30 -103
q2 -46 2 -89v-32h-640v32zM1280 352v64l64 64h32l32 -32q0 -24 -4 -28t-28 -4l-32 -64h-64zM704 352h-64l-32 64q-24 0 -28 4t-4 28q36 32 64 32l64 -64v-64zM992 640q14 0 23 -10t9 -22v-96q-4 -32 -32 -32q-14 0 -23 10t-9 22v96q4 32 32 32z" />
    <glyph glyph-name="integral" unicode="&#x222b;" horiz-adv-x="600" 
 />
    <glyph glyph-name="approxequal" unicode="&#x2248;" horiz-adv-x="1" 
d="M1024 640q132 0 226 -74t94 -182t-94 -182t-226 -74l-192 -128v176q-52 40 -90 96t-38 112q0 108 94 182t226 74z" />
    <glyph glyph-name="notequal" unicode="&#x2260;" horiz-adv-x="600" 
 />
    <glyph glyph-name="lessequal" unicode="&#x2264;" horiz-adv-x="600" 
 />
    <glyph glyph-name="greaterequal" unicode="&#x2265;" 
d="M928 416q-28 0 -32 32q0 24 4 28t28 4v64h32v64h32v32h128v-32h64v-64l32 -32v-64l-32 -32v-96q-12 0 -22 -9t-10 -23v-32h32q21 0 36 -26q16 -26 28 -38q28 -56 32 -96q32 -64 64 -96h-608v64q-28 28 -32 64q32 32 32 64l96 96q12 0 22 9t10 23h64v96z" />
    <glyph glyph-name="lozenge" unicode="&#x25ca;" horiz-adv-x="600" 
 />
    </font>
</defs>
</svg>
