<?xml version="1.0" standalone="no"?>
<!DOCTYPE svg PUBLIC "-//W3C//DTD SVG 1.1//EN" "http://www.w3.org/Graphics/SVG/1.1/DTD/svg11.dtd" >
<svg>
<metadata>
Created by FontForge 20120702 at Mon Aug 11 15:16:07 2014

Copyright (c) 2010 Linotype GmbH, www.linotype.com. All rights reserved. This font software may not be reproduced, modified, disclosed or transferred without the express written approval of Linotype GmbH.
</metadata>
<defs>
<font id="UBSHeadline" horiz-adv-x="236" >
  <font-face 
    font-family="UBSHeadline"
    font-weight="400"
    font-stretch="normal"
    units-per-em="1000"
    panose-1="2 4 5 3 8 7 2 4 2 4"
    ascent="754"
    descent="-246"
    x-height="490"
    cap-height="715"
    bbox="-22 -230 877 798"
    underline-thickness="50"
    underline-position="-50"
    unicode-range="U+0020-FB04"
  />
    <missing-glyph />
    <glyph glyph-name="space" unicode=" " 
 />
    <glyph glyph-name="exclam" unicode="!" horiz-adv-x="252" 
d="M113 206q-3 48 -11 111t-16 125.5t-14.5 117t-6.5 85.5q0 32 14.5 54.5t46.5 22.5q30 0 44.5 -22.5t14.5 -54.5q0 -31 -6 -85.5t-14.5 -117.5t-16 -125.5t-10.5 -110.5h-25zM60 63q0 29 17.5 51t46.5 22t47 -22t18 -51t-18 -49.5t-47 -20.5t-46.5 20.5t-17.5 49.5z" />
    <glyph glyph-name="quotedbl" unicode="&#x22;" horiz-adv-x="398" 
d="M142 413h-20l-26 206q-2 14 -3 25t-1 19q0 10 1.5 21.5t6 21t12 15.5t20.5 6t21 -6t12 -15.5t5.5 -21t1.5 -21.5q0 -8 -1 -19t-3 -25zM276 413h-20l-26 206q-2 14 -3 25t-1 19q0 10 1.5 21.5t6 21t12 15.5t20.5 6t21 -6t12 -15.5t5.5 -21t1.5 -21.5q0 -8 -1 -19t-3 -25z
" />
    <glyph glyph-name="numbersign" unicode="#" horiz-adv-x="473" 
d="M269 205h-104l-24 -205h-59l25 205h-84v66h92l18 151h-88v66h96l24 206h59l-25 -206h104l25 206h57l-24 -206h89v-66h-97l-18 -151h84v-66h-92l-25 -205h-58zM277 271q5 38 9 75.5t8 75.5h-103q-4 -38 -8.5 -75.5t-9.5 -75.5h104z" />
    <glyph glyph-name="dollar" unicode="$" horiz-adv-x="473" 
d="M221 -12q-30 0 -62.5 8.5t-59 26.5t-43.5 45.5t-17 66.5q0 29 11.5 49.5t37.5 20.5q24 0 34 -14.5t10 -42.5q0 -16 -2 -25t-2 -20q0 -37 18.5 -59t74.5 -24v294q-44 21 -75.5 42.5t-52 45.5t-30.5 52t-10 62q0 44 14.5 79t38 59.5t53.5 37.5t62 14v92h36v-91q31 -2 58 -9
t47 -21.5t31.5 -39t11.5 -60.5q0 -17 -10.5 -28.5t-27.5 -11.5q-25 0 -33 15t-9 42q-1 38 -16 59.5t-52 24.5v-258q43 -23 75.5 -44t55 -45.5t34 -54.5t11.5 -70q0 -49 -13.5 -87t-37.5 -65t-56 -43t-69 -21v-94h-36v92zM257 22q22 1 42.5 10t36.5 24.5t25 38.5t9 53
q0 45 -25 82.5t-88 68.5v-277zM221 679q-42 -3 -69.5 -31.5t-27.5 -78.5q0 -47 24.5 -76.5t72.5 -55.5v242z" />
    <glyph glyph-name="percent" unicode="%" horiz-adv-x="825" 
d="M68 493q0 48 11.5 88t31 68.5t45.5 44t55 15.5q28 0 52 -16t41 -44.5t27 -67.5t10 -84q0 -48 -11 -89t-29.5 -71t-44 -47t-55.5 -17t-55 16.5t-42 45.5t-26.5 69.5t-9.5 88.5zM139 490q0 -41 2.5 -76t9.5 -60.5t19.5 -40t33.5 -14.5q23 0 36.5 14t20.5 39.5t9 61t2 79.5
q0 41 -2 76t-9 60.5t-19.5 39.5t-33.5 14q-23 0 -36.5 -14t-21 -39.5t-9.5 -61t-2 -78.5zM583 714h41l-380 -735h-41zM484 207q0 48 11.5 88t31 68.5t45.5 44t55 15.5q28 0 52 -16t41 -44.5t27 -67.5t10 -84q0 -48 -11 -89t-29.5 -71t-44 -47t-55.5 -17t-55 16.5t-42 45.5
t-26.5 69.5t-9.5 88.5zM555 204q0 -41 2.5 -76t9.5 -60.5t19.5 -40t33.5 -14.5q23 0 36.5 14t20.5 39.5t9 61t2 79.5q0 41 -2 76t-9 60.5t-19.5 39.5t-33.5 14q-23 0 -36.5 -14t-21 -39.5t-9.5 -61t-2 -78.5z" />
    <glyph glyph-name="ampersand" unicode="&#x26;" horiz-adv-x="645" 
d="M150 578q0 27 10.5 53t29.5 46.5t46.5 33t62.5 12.5q18 0 36 -3.5t31.5 -13t22 -25t8.5 -39.5q0 -26 -10 -50.5t-26 -47t-36.5 -42.5t-40.5 -37q33 -69 67 -137t71 -137q19 41 32.5 89t13.5 90q0 56 -24.5 76t-66.5 20v26h239v-26q-27 -2 -45.5 -7t-31.5 -16t-20.5 -29
t-13.5 -46q-9 -44 -25.5 -99.5t-40.5 -104.5q24 -48 46.5 -68t47.5 -20q18 0 30.5 8.5t20.5 23t11.5 32.5t3.5 37q0 27 -4 51.5t-12 50.5l24 8q9 -30 14.5 -60t5.5 -62q0 -35 -10 -66t-28.5 -54.5t-44.5 -37.5t-58 -14q-38 0 -63 19.5t-47 52.5q-33 -40 -71.5 -58.5
t-86.5 -18.5q-36 0 -68.5 15t-57 42t-39 65t-14.5 84q0 42 13.5 76.5t35 63.5t48 53t53.5 44q-12 30 -20 51.5t-12 38t-5.5 30t-1.5 27.5zM123 267q0 -34 9.5 -74.5t28.5 -76t47.5 -59.5t65.5 -24q27 0 49 15.5t38 40.5q-42 78 -82.5 158t-77.5 160q-34 -23 -56 -58.5
t-22 -81.5zM228 627q0 -20 9 -51t36 -87q35 27 53.5 63.5t18.5 75.5q0 32 -12 51t-41 19q-25 0 -44.5 -17.5t-19.5 -53.5z" />
    <glyph glyph-name="quotesingle" unicode="'" horiz-adv-x="264" 
d="M142 413h-20l-26 206q-2 14 -3 25t-1 19q0 10 1.5 21.5t6 21t12 15.5t20.5 6t21 -6t12 -15.5t5.5 -21t1.5 -21.5q0 -8 -1 -19t-3 -25z" />
    <glyph glyph-name="parenleft" unicode="(" horiz-adv-x="354" 
d="M328 734q-56 -39 -89.5 -90t-52.5 -111t-25 -127t-6 -139t6 -139t25 -127t52.5 -111t89.5 -90l-13 -27q-121 82 -188 203.5t-67 290.5t67 290.5t188 203.5z" />
    <glyph glyph-name="parenright" unicode=")" horiz-adv-x="354" 
d="M26 -200q55 39 89 90t53 111t25 127t6 139t-6 139t-25 127t-53 111t-89 90l13 27q121 -82 188 -203.5t67 -290.5t-67 -290.5t-188 -203.5z" />
    <glyph glyph-name="asterisk" unicode="*" horiz-adv-x="429" 
d="M47 580q0 17 11.5 31.5t29.5 14.5q20 0 33 -9t25 -21t25 -23.5t33 -15.5q-1 21 -6.5 37t-11.5 29t-11 24.5t-5 23.5q0 17 12 30.5t32 13.5t34.5 -11.5t14.5 -32.5q0 -7 -6 -21.5t-13.5 -31.5t-13 -33.5t-5.5 -27.5q19 4 32.5 15.5t25.5 23.5t25 21t33 9q18 0 29.5 -14.5
t11.5 -31.5q0 -24 -13.5 -37t-36.5 -13q-17 0 -35 6t-35 6q-8 0 -14.5 -2t-14.5 -4q16 -18 34 -29.5t33.5 -21.5t25.5 -20.5t10 -26.5q0 -20 -13.5 -33.5t-32.5 -13.5q-24 0 -34.5 15.5t-16.5 36.5t-10.5 43t-14.5 34q-11 -12 -15 -34t-10 -43t-16.5 -36.5t-34.5 -15.5
q-19 0 -32.5 13.5t-13.5 33.5q0 16 10 26.5t25.5 20.5t33.5 21.5t34 29.5q-7 2 -13.5 4t-14.5 2q-17 0 -35 -6t-35 -6q-23 0 -36.5 13t-13.5 37z" />
    <glyph glyph-name="plus" unicode="+" horiz-adv-x="510" 
d="M226 223h-185v56h185v224h58v-224h184v-56h-184v-223h-58v223z" />
    <glyph glyph-name="comma" unicode="," 
d="M50 -168q19 13 36.5 30.5t31 37.5t22 42.5t8.5 46.5q0 11 -1 15q-16 -10 -35 -10q-28 0 -43 17.5t-15 48.5q0 32 17.5 52.5t45.5 20.5q24 0 38.5 -11t22.5 -28t10.5 -38t2.5 -41q0 -33 -10.5 -63.5t-28 -57t-39.5 -48t-46 -35.5z" />
    <glyph glyph-name="hyphen" unicode="-" horiz-adv-x="335" 
d="M38 290h258v-69h-258v69z" />
    <glyph glyph-name="period" unicode="." 
d="M53 63q0 30 18 51t47 21t47 -21t18 -51q0 -29 -18 -50t-47 -21t-47 21t-18 50z" />
    <glyph glyph-name="slash" unicode="/" horiz-adv-x="394" 
d="M313 727h66l-298 -739h-66z" />
    <glyph glyph-name="zero" unicode="0" horiz-adv-x="524" 
d="M473 347q0 -62 -12.5 -126t-38.5 -116t-66 -84.5t-95 -32.5t-94.5 32.5t-65.5 84.5t-38.5 116t-12.5 126t12.5 126t38.5 115.5t65.5 84.5t94.5 33t95 -33t66 -84.5t38.5 -115.5t12.5 -126zM363 347q0 87 -5.5 149t-17.5 101.5t-31.5 58.5t-47.5 19q-29 0 -48 -19
t-31 -58.5t-17 -101.5t-5 -149t5 -149t17 -101.5t31 -58.5t48 -19q28 0 47.5 19t31.5 58.5t17.5 101.5t5.5 149z" />
    <glyph glyph-name="one" unicode="1" horiz-adv-x="350" 
d="M39 33h91v536q-20 -27 -45 -49.5t-51 -42.5l-20 26q51 42 95.5 92t70.5 112h54v-674h90v-33h-285v33z" />
    <glyph glyph-name="two" unicode="2" horiz-adv-x="473" 
d="M241 706q88 0 136 -53t48 -147q0 -34 -11 -66t-28.5 -61t-40 -55.5t-44.5 -50.5q-23 -24 -48 -49l-49.5 -49.5t-47 -46.5t-39.5 -38h172q26 0 46.5 9t35.5 24t25 34.5t16 40.5l28 -5l-67 -193h-350l-4 26q16 18 31 33l30 30t29.5 30.5t31.5 33.5q28 31 59 69.5t56.5 82
t42.5 90.5t17 96q0 33 -3.5 65.5t-15 58.5t-33.5 42t-58 16q-48 0 -76 -31.5t-28 -76.5q0 -23 5 -37t11.5 -24.5t11.5 -19.5t5 -23q0 -16 -11 -29.5t-35 -13.5q-27 0 -42 28.5t-15 65.5q0 35 12 69.5t37.5 62.5t65 45t94.5 17z" />
    <glyph glyph-name="three" unicode="3" horiz-adv-x="471" 
d="M194 17q37 0 60.5 18t36.5 47.5t18 66.5t5 75q0 54 -6.5 88.5t-19 53.5t-29.5 26t-38 7q-17 0 -30 -3.5t-26 -12.5t-28.5 -25t-37.5 -41l-27 19q27 30 57.5 64.5t62.5 69.5t62.5 68.5t57.5 62.5h-201l-32 -88l-26 8l57 173h309l10 -24l-234 -245l2 -2q13 5 30.5 9t31.5 4
q23 0 51.5 -7.5t54 -29.5t42.5 -62.5t17 -106.5q0 -54 -16 -98.5t-44.5 -76.5t-68 -49.5t-86.5 -17.5q-48 0 -82 11.5t-55.5 31.5t-31.5 47t-10 59q0 26 11.5 44.5t37.5 18.5q23 0 31 -13.5t8 -33.5q0 -13 -5.5 -27.5t-5.5 -25.5q0 -39 20.5 -61t66.5 -22z" />
    <glyph glyph-name="four" unicode="4" horiz-adv-x="492" 
d="M266 195h-248v58l278 453h67v-446h111v-65h-111v-195h-97v195zM64 260h202v180q0 48 0.5 90.5t2.5 68.5h-2q-6 -11 -15.5 -27t-20 -34.5t-22.5 -38t-22 -36.5z" />
    <glyph glyph-name="five" unicode="5" horiz-adv-x="460" 
d="M198 -12q-48 0 -81.5 11.5t-54.5 31.5t-30.5 47t-9.5 59q0 26 11.5 44.5t37.5 18.5q23 0 31 -13.5t8 -30.5q0 -13 -5 -28t-5 -27q0 -83 87 -83q37 0 60 20t36 51t17.5 67.5t4.5 69.5t-2.5 69.5t-13 67t-32 50.5t-58.5 20q-26 0 -46.5 -10.5t-36 -27.5t-26 -40.5
t-15.5 -48.5l-31 5l69 383h286l-17 -57q-5 -15 -15.5 -24.5t-35.5 -9.5h-197l-37 -194h2q25 38 57.5 53.5t77.5 15.5q38 0 71 -15.5t57 -45.5t38 -75t14 -103q0 -57 -15.5 -103t-43.5 -79t-68 -51t-89 -18z" />
    <glyph glyph-name="six" unicode="6" horiz-adv-x="504" 
d="M460 226q0 -41 -11 -83t-35 -76.5t-61 -56.5t-89 -22q-58 0 -97.5 23.5t-64 66t-35.5 101.5t-11 129q0 65 12 135.5t40 129t73 96t111 37.5q27 0 53.5 -8t47 -24t33 -41t12.5 -59q0 -23 -10.5 -37.5t-30.5 -14.5q-16 0 -25 6.5t-13.5 17t-6 24t-1.5 26.5q0 37 -14.5 58
t-45.5 21q-26 0 -46.5 -16t-35 -42t-24 -59.5t-15.5 -67.5t-8.5 -66.5t-2.5 -56.5h2q21 41 57.5 60t76.5 19q43 0 74.5 -17t51.5 -47t29.5 -70t9.5 -86zM160 228q0 -36 4 -73t15.5 -67.5t31 -50t49.5 -19.5q95 0 95 191q0 31 -2 65.5t-10.5 63.5t-26.5 47.5t-49 18.5
q-48 0 -77.5 -40.5t-29.5 -135.5z" />
    <glyph glyph-name="seven" unicode="7" horiz-adv-x="422" 
d="M76 694h339l6 -22q-87 -158 -141 -329.5t-59 -342.5h-113q20 156 83 306t159 295h-271l-33 -89l-29 4z" />
    <glyph glyph-name="eight" unicode="8" horiz-adv-x="501" 
d="M436 550q0 -56 -33 -94t-81 -58v-2q69 -34 102 -80t33 -107q0 -51 -16 -92t-44 -69.5t-65.5 -44t-80.5 -15.5q-41 0 -78.5 10t-66 32t-45.5 56.5t-17 83.5q0 34 11.5 63t30 52t42 40.5t48.5 28.5q-60 32 -87.5 75.5t-27.5 95.5q0 46 16.5 80t44.5 56.5t63.5 33.5t74.5 11
q37 0 69 -9.5t56 -29t37.5 -48.5t13.5 -69zM375 149q0 39 -16 68t-41 51t-56 39t-61 31q-42 -29 -62.5 -72.5t-20.5 -97.5q0 -68 34.5 -109t101.5 -41q57 0 89 36.5t32 94.5zM370 546q0 59 -27.5 94t-86.5 35q-49 0 -81 -28.5t-32 -85.5q0 -27 8.5 -47t27 -36.5t47 -32
t68.5 -32.5q32 22 54 56.5t22 76.5z" />
    <glyph glyph-name="nine" unicode="9" horiz-adv-x="504" 
d="M44 468q0 41 11.5 83t36 76.5t62.5 56.5t92 22q59 0 98 -24.5t62 -68t32.5 -103.5t9.5 -130q0 -65 -12 -134.5t-40 -126.5t-73 -94t-111 -37q-27 0 -54 8t-48.5 24t-35 41t-13.5 59q0 23 10.5 37.5t30.5 14.5q16 0 25 -6.5t13.5 -17t6 -24t1.5 -26.5q0 -37 17 -58t48 -21
q40 0 65.5 31.5t40 78.5t20.5 100.5t6 97.5h-2q-21 -41 -57.5 -60t-76.5 -19q-44 0 -75 17t-51 47t-29.5 70t-9.5 86zM344 466q0 36 -4 73t-15.5 67.5t-31 50t-49.5 19.5q-95 0 -95 -191q0 -32 2 -66t10.5 -63t26 -47.5t49.5 -18.5q48 0 77.5 40.5t29.5 135.5z" />
    <glyph glyph-name="colon" unicode=":" 
d="M53 63q0 30 18 51t47 21t47 -21t18 -51q0 -29 -18 -50t-47 -21t-47 21t-18 50zM53 406q0 30 18 51t47 21t47 -21t18 -51q0 -29 -18 -50t-47 -21t-47 21t-18 50z" />
    <glyph glyph-name="semicolon" unicode=";" 
d="M53 -168q19 13 36.5 30.5t31 37.5t22 42.5t8.5 46.5q0 11 -1 15q-16 -10 -35 -10q-28 0 -45 19t-17 50q0 32 17.5 52.5t45.5 20.5q25 0 40.5 -11.5t23.5 -29t11 -39t3 -41.5q0 -33 -10.5 -63.5t-28 -57t-39.5 -48t-46 -35.5zM53 406q0 30 18 51t47 21t47 -21t18 -51
q0 -29 -18 -50t-47 -21t-47 21t-18 50z" />
    <glyph glyph-name="less" unicode="&#x3c;" horiz-adv-x="510" 
d="M460 442l-356 -190l356 -187l-26 -57l-393 217v52l393 219z" />
    <glyph glyph-name="equal" unicode="=" horiz-adv-x="510" 
d="M41 370h427v-56h-427v56zM41 188h427v-56h-427v56z" />
    <glyph glyph-name="greater" unicode="&#x3e;" horiz-adv-x="510" 
d="M40 62l356 190l-356 187l26 57l393 -217v-52l-393 -219z" />
    <glyph glyph-name="question" unicode="?" horiz-adv-x="385" 
d="M152 275q0 39 10 60t31 43q19 20 33.5 37t23.5 36.5t13.5 45.5t4.5 64q0 72 -15 103.5t-58 31.5q-23 0 -36 -11.5t-13 -34.5q0 -17 7.5 -31.5t7.5 -36.5q0 -24 -13.5 -39t-33.5 -15q-24 0 -37 19t-13 47q0 32 11.5 56t31.5 40t46 24t55 8q154 0 154 -149q0 -42 -9.5 -72
t-28 -54.5t-45.5 -47t-62 -48.5q-34 -26 -34 -84v-61h-31v69zM102 63q0 29 17.5 51t46.5 22t47 -22t18 -51t-18 -49.5t-47 -20.5t-46.5 20.5t-17.5 49.5z" />
    <glyph glyph-name="at" unicode="@" horiz-adv-x="876" 
d="M574 493h73l-67 -293q-6 -36 -6 -53q0 -5 0.5 -13.5t4.5 -16.5t11 -14t21 -6q32 0 60 21.5t48.5 58.5t32.5 87.5t12 108.5q0 52 -15 104.5t-48.5 95t-86.5 69t-128 26.5q-68 0 -126.5 -26.5t-102.5 -78t-69 -128t-25 -175.5q0 -82 19.5 -149t57.5 -115t93.5 -74
t128.5 -26t122.5 17t94.5 49l13 -28q-46 -35 -106.5 -55.5t-126.5 -20.5q-98 0 -170.5 30.5t-120 85.5t-70.5 130t-23 165q0 100 32 180.5t86 137t126 86.5t153 30q88 0 150.5 -28.5t102.5 -75t58 -106t18 -121.5q0 -47 -11 -101.5t-35.5 -101.5t-63.5 -78.5t-94 -31.5
q-45 0 -65 23t-25 63h-2q-26 -39 -56 -62.5t-68 -23.5q-51 0 -78 44.5t-27 118.5q0 48 12.5 99t38 93.5t63.5 69.5t89 27q31 0 54.5 -18t29.5 -47h2zM363 222q0 -51 14 -79.5t44 -28.5q24 0 46 23.5t39 62.5t27 90t10 105q0 38 -13 60.5t-36 22.5q-26 0 -49.5 -21t-41.5 -56
t-29 -81.5t-11 -97.5z" />
    <glyph glyph-name="A" unicode="A" horiz-adv-x="563" 
d="M-6 33h61l206 691h36l208 -691h64v-33h-260v33h80l-59 212h-171l-62 -212h83v-33h-186v33zM168 279h154l-45 168q-4 15 -8 32t-8 33.5t-7 31t-4 23.5h-2q-2 -9 -6 -24t-8.5 -32t-9.5 -34.5l-9 -31.5z" />
    <glyph glyph-name="B" unicode="B" horiz-adv-x="603" 
d="M28 33h80v649h-80v33h298q92 0 142 -43.5t50 -115.5q0 -77 -44 -117.5t-121 -55.5v-2q39 -5 74.5 -16.5t62 -34t42.5 -56t16 -81.5q0 -54 -18.5 -90.5t-50 -59.5t-72.5 -33t-87 -10h-292v33zM211 33h77q78 0 113.5 43t35.5 126q0 84 -39.5 121.5t-105.5 37.5h-81v-328z
M211 399h76q26 0 48 8t38.5 25t26 44t9.5 65q0 64 -29 102.5t-92 38.5h-77v-283z" />
    <glyph glyph-name="C" unicode="C" horiz-adv-x="611" 
d="M561 477h-33q-5 46 -16 86t-30.5 69.5t-49.5 46.5t-72 17q-63 0 -100.5 -30.5t-57 -78.5t-25.5 -108.5t-6 -120.5q0 -34 1.5 -72.5t7.5 -76t17.5 -72t31 -61t48.5 -42t70 -15.5q43 0 75.5 19.5t55 52t35.5 75t16 89.5h32v-199q-110 -68 -216 -68q-70 0 -125 27.5
t-92.5 77t-57 117t-19.5 148.5q0 80 21 147.5t60 117t95 77t126 27.5q53 0 105 -16t103 -42v-192z" />
    <glyph glyph-name="D" unicode="D" horiz-adv-x="683" 
d="M28 33h79v649h-79v33h307q69 0 124 -23.5t93.5 -69.5t59 -112.5t20.5 -152.5q0 -77 -21 -142.5t-59.5 -113t-93.5 -74.5t-124 -27h-306v33zM213 33h97q45 0 82.5 19.5t64.5 59.5t42 101t15 144q0 85 -14.5 146.5t-41 101t-63.5 58.5t-81 19h-101v-649z" />
    <glyph glyph-name="E" unicode="E" horiz-adv-x="590" 
d="M28 33h80v649h-80v33h496l3 -206h-29q-9 64 -22.5 99t-40 51.5t-68.5 19.5t-108 3h-45v-302q49 0 77.5 5.5t42.5 20.5t18 43t4 73h31v-309h-31q0 43 -4 70t-18 41.5t-42.5 19.5t-77.5 5v-316h118q46 0 79 10.5t56 34t37 62t20 94.5h30l-6 -234h-520v33z" />
    <glyph glyph-name="F" unicode="F" horiz-adv-x="537" 
d="M526 512h-28q-9 62 -23.5 96.5t-40.5 51t-68 19.5t-108 3h-49v-301q51 0 80.5 4.5t44 19t18.5 42.5t4 75h32v-312h-32q0 46 -4 73t-19 41t-44 18t-80 4v-313h82v-33h-263v33h76v649h-76v33h494z" />
    <glyph glyph-name="G" unicode="G" horiz-adv-x="672" 
d="M400 345h250v-32h-62v-251q-59 -35 -119.5 -54.5t-123.5 -19.5q-70 0 -124.5 27.5t-92 76.5t-57.5 117t-20 150q0 81 22 148.5t62.5 116.5t97.5 76t126 27q53 0 105.5 -15.5t101.5 -40.5v-196h-27q-6 49 -21.5 89.5t-39.5 69.5t-55.5 45.5t-68.5 16.5q-42 0 -72 -16.5
t-50.5 -44.5t-32.5 -63t-18 -73t-8 -74.5t-2 -66.5q0 -34 1.5 -72.5t7.5 -76t17.5 -72t31 -61t48.5 -42t70 -15.5q63 0 100.5 30.5t37.5 93.5v170h-85v32z" />
    <glyph glyph-name="H" unicode="H" horiz-adv-x="688" 
d="M28 33h81v649h-81v33h264v-33h-77v-298h258v298h-77v33h264v-33h-81v-649h81v-33h-264v33h77v316h-258v-316h77v-33h-264v33z" />
    <glyph glyph-name="I" unicode="I" horiz-adv-x="326" 
d="M30 33h80v649h-80v33h266v-33h-80v-649h80v-33h-266v33z" />
    <glyph glyph-name="J" unicode="J" horiz-adv-x="380" 
d="M103 715h261v-33h-69v-544q0 -31 -7.5 -58.5t-25.5 -47.5t-48 -32t-75 -12q-22 0 -47 6t-46 20t-35 36t-14 54q0 27 15 48.5t46 21.5q19 0 34.5 -15.5t15.5 -40.5q0 -18 -5.5 -29t-11.5 -18t-11.5 -12.5t-5.5 -13.5t4.5 -13t11.5 -8t14.5 -4t12.5 -1q23 0 37.5 7.5t22 21
t10 31t2.5 38.5v565h-86v33z" />
    <glyph glyph-name="K" unicode="K" horiz-adv-x="590" 
d="M446 682h-69v33h181v-33h-69l-180 -267l233 -382h54v-33h-255v33h72l-186 321zM214 33h77v-33h-263v33h80v649h-80v33h265v-33h-79v-649z" />
    <glyph glyph-name="L" unicode="L" horiz-adv-x="516" 
d="M28 33h80v649h-80v33h264v-33h-78v-649h83q36 0 64.5 9t50 34.5t36.5 70.5t24 117h29v-264h-473v33z" />
    <glyph glyph-name="M" unicode="M" horiz-adv-x="835" 
d="M622 460q0 50 1.5 102.5t4.5 119.5h-2q-5 -16 -13.5 -43t-18.5 -58.5t-20.5 -64t-20.5 -60.5l-164 -470h-25l-162 477q-9 25 -19 57t-19.5 63.5t-17 58t-10.5 40.5h-2q1 -37 1.5 -67t1 -56.5t0.5 -50v-48.5v-427h82v-33h-201v33h77v649h-77v33h215l131 -396
q20 -60 30.5 -95t15.5 -61h2q3 12 7.5 26.5t10.5 32.5t13.5 41.5t18.5 54.5l135 397h210v-33h-82v-649h82v-33h-279v33h94v427z" />
    <glyph glyph-name="N" unicode="N" horiz-adv-x="652" 
d="M517 682h-88v33h207v-33h-77v-695h-40l-388 679h-2v-633h88v-33h-199v33h69v649h-69v33h210l219 -397q23 -42 41.5 -79.5t29.5 -63.5h2q-2 23 -2.5 56.5t-0.5 82.5v368z" />
    <glyph glyph-name="O" unicode="O" horiz-adv-x="680" 
d="M51 357q0 73 17.5 140t53.5 118t90.5 81.5t128.5 30.5q73 0 127 -30.5t90 -82t53.5 -118.5t17.5 -139t-17.5 -139t-53.5 -118t-90 -81.5t-127 -30.5q-74 0 -128.5 30.5t-90.5 81.5t-53.5 117.5t-17.5 139.5zM508 357q0 63 -5 123.5t-22.5 108t-50.5 76.5t-89 29
q-57 0 -90.5 -29t-51 -76.5t-22.5 -108t-5 -123.5t5 -123.5t22.5 -107.5t51 -76t90.5 -29q56 0 89 29t50.5 76t22.5 107.5t5 123.5z" />
    <glyph glyph-name="P" unicode="P" horiz-adv-x="531" 
d="M28 33h80v649h-80v33h273q43 0 81 -9t66.5 -31.5t45.5 -60t17 -93.5q0 -51 -17.5 -90t-48 -64.5t-72 -38.5t-88.5 -13h-71v-282h81v-33h-267v33zM214 353h49q74 0 104 41t30 129q0 77 -27.5 118t-92.5 41h-63v-329z" />
    <glyph glyph-name="Q" unicode="Q" horiz-adv-x="680" 
d="M508 357q0 63 -5 123.5t-22.5 108t-50.5 76.5t-89 29q-57 0 -90.5 -29t-51 -76.5t-22.5 -108t-5 -123.5t5 -123.5t22.5 -107.5t51 -76t90.5 -29q56 0 89 29t50.5 76t22.5 107.5t5 123.5zM285 -7q-60 11 -104 45t-73 83t-43 109.5t-14 126.5q0 73 17.5 140t53.5 118
t90.5 81.5t128.5 30.5q73 0 127 -30.5t90 -82t53.5 -118.5t17.5 -139q0 -69 -17 -134.5t-50.5 -116.5t-83 -82.5t-113.5 -31.5h-14t-19 2v-3q20 -3 36 -8.5t28 -16t20.5 -27.5t13.5 -43q4 -22 10.5 -34t17 -18t25 -7t35.5 -1v-32h-58q-60 0 -92 21.5t-32 69.5q0 50 -11 71.5
t-40 26.5z" />
    <glyph glyph-name="R" unicode="R" horiz-adv-x="591" 
d="M28 0v33h80v649h-80v33h263q39 0 77.5 -5.5t68.5 -23t49 -50t19 -87.5q0 -41 -15.5 -71.5t-40.5 -51t-55.5 -32.5t-61.5 -16v-2q47 -6 79.5 -15.5t52.5 -30t30 -56.5t12 -94q1 -37 3 -65t8 -47t17 -28.5t31 -9.5h23v-30h-72q-41 0 -64 11.5t-35 35.5t-15.5 60t-5.5 84
q-2 49 -8.5 81t-21 50.5t-38.5 26t-61 7.5h-53v-323h81v-33h-267zM214 393h58q66 0 96 39.5t30 109.5q0 77 -30 108.5t-96 31.5h-58v-289z" />
    <glyph glyph-name="S" unicode="S" horiz-adv-x="533" 
d="M52 217h34q5 -91 50 -143t130 -52q27 0 52.5 7t45 23t31 41t11.5 60q0 46 -25 74t-62.5 48.5t-81.5 38.5t-81.5 44t-62.5 64.5t-25 100.5q0 51 16.5 89t44 63.5t64 38.5t77.5 13q38 0 87.5 -11.5t89.5 -31.5l6 -157h-30q-13 83 -50 125.5t-113 42.5q-23 0 -43.5 -7.5
t-37 -22.5t-26 -37.5t-9.5 -52.5q0 -44 25 -69t62.5 -43.5t81 -35t81 -42.5t62.5 -66.5t25 -107.5q0 -51 -15.5 -92t-44.5 -70t-70.5 -45t-93.5 -16q-56 0 -105.5 10t-93.5 35z" />
    <glyph glyph-name="T" unicode="T" horiz-adv-x="567" 
d="M140 33h91v649h-63q-36 0 -59.5 -18t-37.5 -46.5t-20 -64t-7 -71.5h-31v233h541v-233h-31q-1 36 -7 71.5t-20 64t-37.5 46.5t-59.5 18h-62v-649h90v-33h-287v33z" />
    <glyph glyph-name="U" unicode="U" horiz-adv-x="653" 
d="M18 715h270v-33h-85v-443q0 -48 8.5 -86.5t27.5 -66t50 -42.5t76 -15t75.5 16.5t49 46t26.5 70t8 88.5v432h-78v33h192v-33h-72v-438q0 -55 -11.5 -101.5t-38.5 -80.5t-71.5 -53.5t-110.5 -19.5q-69 0 -114.5 18t-73 50t-38.5 76.5t-11 97.5v451h-79v33z" />
    <glyph glyph-name="V" unicode="V" horiz-adv-x="563" 
d="M276 322q17 -61 25.5 -95t13.5 -59h2q6 25 15 59t26 94l101 361h-76v33h180v-33h-59l-203 -694h-35l-202 694h-64v33h268v-33h-91z" />
    <glyph glyph-name="W" unicode="W" horiz-adv-x="877" 
d="M478 494q-8 30 -13 53t-9 42t-7 34.5t-6 29.5h-2q-3 -14 -6.5 -29.5t-8 -34t-10.5 -41.5t-13 -53l-127 -507h-35l-185 694h-56v33h239v-33h-73l87 -357q7 -30 12.5 -53.5t9 -41.5t6 -32.5t4.5 -26.5h2q5 25 12 59t22 94l88 358h-77v33h277v-33h-78l89 -357q15 -61 21 -95
t9 -59h2q4 25 11 59t22 94l89 358h-80v33h183v-33h-62l-176 -694h-35z" />
    <glyph glyph-name="X" unicode="X" horiz-adv-x="591" 
d="M286 263q-10 23 -16 36.5t-9 23.5h-2q-4 -10 -10.5 -23.5t-17.5 -36.5l-113 -230h80v-33h-190v33h63l164 325l-156 324h-67v33h276v-33h-86l88 -189q11 -23 16.5 -36.5t9.5 -23.5h2q4 10 10 23.5t17 36.5l92 189h-77v33h186v-33h-64l-141 -284l169 -365h76v-33h-284v33
h87z" />
    <glyph glyph-name="Y" unicode="Y" horiz-adv-x="531" 
d="M361 682v33h181v-33h-60l-156 -321v-328h81v-33h-270v33h83v321l-162 328h-69v33h283v-33h-91l101 -213q11 -23 16.5 -36.5t9.5 -23.5h2q4 10 10 23t17 37l99 213h-75z" />
    <glyph glyph-name="Z" unicode="Z" horiz-adv-x="559" 
d="M53 500v215h440l9 -21l-355 -661h145q53 0 89.5 15.5t60 45t35 71t14.5 93.5h31v-258h-495l-5 27l357 655h-169q-36 0 -60 -16.5t-39 -42.5t-22 -58.5t-8 -64.5h-28z" />
    <glyph glyph-name="bracketleft" unicode="[" horiz-adv-x="299" 
d="M103 749h184v-28h-99v-908h99v-28h-184v964z" />
    <glyph glyph-name="backslash" unicode="\" horiz-adv-x="394" 
d="M15 727h66l298 -739h-66z" />
    <glyph glyph-name="bracketright" unicode="]" horiz-adv-x="299" 
d="M195 -215h-184v28h100v908h-100v28h184v-964z" />
    <glyph glyph-name="asciicircum" unicode="^" horiz-adv-x="501" 
d="M220 694h60l161 -365h-58l-133 307l-133 -307h-58z" />
    <glyph glyph-name="underscore" unicode="_" horiz-adv-x="500" 
d="M0 -75h500v-50h-500v50z" />
    <glyph glyph-name="grave" unicode="`" 
d="M145 561l-142 96q-15 10 -20 20t-5 19q0 17 12 27t26 10t24 -6.5t23 -23.5l104 -129z" />
    <glyph glyph-name="a" unicode="a" horiz-adv-x="465" 
d="M395 109q0 -27 2 -43t9 -24t20 -10t35 -2v-30h-85q-18 0 -31 2.5t-21.5 11t-13.5 23t-7 38.5q-23 -46 -53.5 -66.5t-86.5 -20.5q-66 0 -93 35.5t-27 104.5q0 52 21.5 82t57.5 49t82 32t95 32v39q0 25 -2 46t-9 36t-20.5 23t-36.5 8q-37 0 -57.5 -16.5t-21.5 -61.5
q-1 -27 -10.5 -39t-33.5 -12q-17 0 -29 8t-12 34q0 35 16 57t40 35t52.5 17.5t53.5 4.5q47 0 79 -9.5t51.5 -28t27.5 -46.5t8 -64v-245zM299 295l-84 -31q-19 -7 -32 -16t-21 -23.5t-11.5 -36.5t-3.5 -55q0 -22 2.5 -42t9 -35t17.5 -24t28 -9q28 0 46.5 18.5t29.5 46
t15 58.5t4 55v94z" />
    <glyph glyph-name="b" unicode="b" horiz-adv-x="518" 
d="M175 419q17 39 49 61t74 22q48 0 82 -21t55.5 -56.5t31 -82t9.5 -97.5q0 -64 -13.5 -112t-37 -80.5t-55.5 -48.5t-69 -16q-44 0 -74 18t-51 63h-2l-5 -69h-90v685h-62v30h158v-178q0 -41 -0.5 -68t-1.5 -50h2zM374 245q0 51 -4.5 92t-15 69.5t-29 43.5t-45.5 15
q-30 0 -50.5 -14.5t-33 -40t-18.5 -61t-6 -77.5v-56q0 -59 10.5 -96t26 -58t33.5 -28.5t32 -7.5q30 0 49.5 16.5t31 46t15.5 69.5t4 87z" />
    <glyph glyph-name="c" unicode="c" horiz-adv-x="447" 
d="M429 153q-14 -47 -33 -78.5t-42 -50.5t-50.5 -27.5t-58.5 -8.5q-47 0 -85 20.5t-64 55.5t-40 81.5t-14 99.5q0 54 15.5 100.5t43 81.5t65.5 55t84 20q31 0 61 -8.5t53.5 -26t37.5 -43.5t14 -60q0 -30 -13 -43t-33 -13q-26 0 -36 17.5t-10 42.5v24q0 40 -18.5 61.5
t-54.5 21.5q-32 0 -52 -18t-31.5 -49.5t-15.5 -73t-4 -89.5q0 -31 2.5 -69.5t14.5 -72t36 -56t67 -22.5q28 0 49 9.5t37 27.5t27.5 43t21.5 57z" />
    <glyph glyph-name="d" unicode="d" horiz-adv-x="509" 
d="M144 245q0 -51 4.5 -92t15 -69.5t29 -43.5t45.5 -15t47 13t33.5 36t20 54t6.5 67v102q0 48 -11 80.5t-26.5 51.5t-33 27t-30.5 8q-30 0 -49.5 -16.5t-31 -46t-15.5 -69.5t-4 -87zM345 685h-70v30h166v-685h60v-30h-156v71h-2q-17 -39 -49 -61t-74 -22q-48 0 -82 21
t-55.5 56.5t-31 82t-9.5 97.5q0 64 13.5 112t37 80.5t55.5 48.5t69 16q44 0 75.5 -18.5t52.5 -64.5h2q-1 23 -1.5 50t-0.5 68v148z" />
    <glyph glyph-name="e" unicode="e" horiz-adv-x="470" 
d="M148 274v-17q0 -48 3 -90.5t14.5 -75t34.5 -51.5t63 -19q56 0 88 36t47 90l26 -9q-21 -81 -64.5 -115.5t-112.5 -34.5q-48 0 -86.5 20t-64.5 54.5t-40 81.5t-14 101q0 52 13.5 98.5t40 81.5t65.5 56t90 21q48 0 82.5 -16t56 -46t32 -72t10.5 -94h-284zM322 305
q-1 40 -3.5 71.5t-10 53.5t-23 33.5t-42.5 11.5q-28 0 -46.5 -18t-29 -44t-15 -55.5t-4.5 -52.5h174z" />
    <glyph glyph-name="f" unicode="f" horiz-adv-x="287" 
d="M15 30h69v430h-69v30h69v65q0 49 9.5 82t28 53t45 28.5t60.5 8.5q18 0 40.5 -2.5t42 -12t33 -27.5t13.5 -48q0 -14 -9 -30.5t-37 -16.5q-13 0 -20.5 4.5t-11.5 12t-5.5 17.5t-2.5 20q-2 21 -8.5 38.5t-32.5 17.5q-32 0 -41 -26t-9 -67v-117h89v-30h-89v-430h70v-30h-234
v30z" />
    <glyph glyph-name="g" unicode="g" horiz-adv-x="489" 
d="M284 103q46 0 79.5 -6.5t54.5 -23t31 -43.5t10 -69q0 -50 -19.5 -84.5t-50.5 -55.5t-69 -30.5t-75 -9.5q-25 0 -59.5 4t-66 18.5t-53.5 41.5t-22 72q0 22 7.5 38.5t20 28.5t28 19t31.5 10v2q-40 9 -63.5 39.5t-23.5 75.5q0 42 18 69.5t46 42.5q-36 42 -36 105q0 37 13 66
t35 48.5t51.5 30t61.5 10.5q38 0 61.5 -7.5t43.5 -18.5q15 32 37 51t46 19q29 0 44.5 -19.5t15.5 -45.5q0 -41 -27 -41q-16 0 -21.5 9.5t-7.5 28.5q-1 12 -4 22.5t-15 10.5q-11 0 -23 -13t-22 -40q23 -25 30.5 -55.5t7.5 -54.5q0 -38 -12 -67.5t-33.5 -50t-50.5 -31
t-63 -10.5q-31 0 -60 7.5t-51 24.5q-20 -5 -32 -21.5t-12 -37.5q0 -37 26.5 -47.5t83.5 -11.5h89zM411 -63q0 22 -7 36.5t-23.5 23t-43 12t-66.5 3.5q-45 0 -75.5 -3t-50 -13.5t-28 -30t-8.5 -52.5q0 -29 9.5 -48.5t27.5 -31.5t43.5 -17t57.5 -5q34 0 63.5 8t52 24
t35.5 39.5t13 54.5zM238 215q21 0 35 11.5t22.5 29.5t11.5 41t3 46q0 58 -14.5 95t-56.5 37q-21 0 -36 -9.5t-24.5 -26.5t-13.5 -39.5t-4 -47.5q0 -26 3.5 -51t12.5 -44t24 -30.5t37 -11.5z" />
    <glyph glyph-name="h" unicode="h" horiz-adv-x="534" 
d="M15 30h71v655h-71v30h166v-310h2q20 51 57.5 74t88.5 23q37 0 62 -11.5t39.5 -32.5t20.5 -50t6 -63v-315h66v-30h-227v30h68v320q0 23 -3 43t-11 35t-21 23.5t-33 8.5q-29 0 -50.5 -16t-35.5 -42.5t-21.5 -61t-7.5 -70.5v-240h63v-30h-229v30z" />
    <glyph glyph-name="i" unicode="i" horiz-adv-x="273" 
d="M24 30h70v430h-70v30h166v-460h70v-30h-236v30zM87 646q0 27 16 46t43 19q26 0 42 -19t16 -46q0 -26 -16 -45t-42 -19q-27 0 -43 19t-16 45z" />
    <glyph glyph-name="j" unicode="j" horiz-adv-x="273" 
d="M-5 -199q32 21 52 38.5t30.5 39.5t14 51t3.5 73v457h-70v30h166v-479q0 -46 -7.5 -77.5t-28 -56t-56 -47t-92.5 -50.5zM88 646q0 27 16 46t43 19q26 0 42 -19t16 -46q0 -26 -16 -45t-42 -19q-27 0 -43 19t-16 45z" />
    <glyph glyph-name="k" unicode="k" horiz-adv-x="494" 
d="M18 30h70v655h-70v30h166v-685h60v-30h-226v30zM365 460h-79v30h191v-30h-69l-132 -163l187 -267h36v-30h-215v30h62l-150 222z" />
    <glyph glyph-name="l" unicode="l" horiz-adv-x="263" 
d="M18 30h70v655h-70v30h166v-685h65v-30h-231v30z" />
    <glyph glyph-name="m" unicode="m" horiz-adv-x="805" 
d="M15 30h71v430h-71v30h164v-82h2q21 49 58.5 71.5t87.5 22.5q53 0 84 -23t39 -79h2q9 28 24.5 47.5t35 31.5t41.5 17.5t45 5.5q63 0 96.5 -33.5t33.5 -113.5v-325h66v-30h-227v30h67v324q0 47 -14 76.5t-52 29.5q-28 0 -49.5 -14t-36 -38.5t-22 -57t-7.5 -68.5v-252h67
v-30h-226v30h65v324q0 52 -15 79t-53 27q-26 0 -47 -13.5t-35.5 -37t-22 -55t-7.5 -67.5v-257h67v-30h-231v30z" />
    <glyph glyph-name="n" unicode="n" horiz-adv-x="532" 
d="M15 30h71v430h-71v30h164v-92h2q20 56 56.5 80t87.5 24q72 0 101 -42t29 -137v-293h66v-30h-227v30h68v323q0 51 -16 79t-54 28q-29 0 -50 -18t-35 -46.5t-21 -64.5t-7 -72v-229h65v-30h-229v30z" />
    <glyph glyph-name="o" unicode="o" horiz-adv-x="495" 
d="M44 245q0 42 11.5 87.5t36 83t63 62t93.5 24.5q54 0 92.5 -24.5t63 -62t36 -83t11.5 -87.5t-11.5 -87.5t-36 -83t-63 -62t-92.5 -24.5q-55 0 -94 24t-63.5 61.5t-35.5 83t-11 88.5zM150 245q0 -41 2 -81.5t12 -72.5t29.5 -52.5t54.5 -20.5q34 0 53.5 20.5t29.5 52.5
t12 72.5t2 81.5q0 40 -2 81t-12 73t-29.5 52.5t-53.5 20.5q-35 0 -54.5 -20.5t-29.5 -52.5t-12 -73t-2 -81z" />
    <glyph glyph-name="p" unicode="p" horiz-adv-x="522" 
d="M177 61q1 -23 1.5 -50t0.5 -68v-133h70v-30h-238v30h72v650h-69v30h165v-71h2q21 46 50.5 64.5t73.5 18.5q37 0 69 -16t55.5 -48.5t37 -80.5t13.5 -112q0 -51 -10.5 -97.5t-33 -82t-57.5 -56.5t-83 -21q-42 0 -71 17t-46 56h-2zM378 245q0 47 -4 87t-15.5 69.5t-31 46
t-49.5 16.5q-14 0 -32 -7.5t-33.5 -28.5t-26 -58t-10.5 -96v-56q0 -42 5 -77.5t16.5 -61t31 -40t49.5 -14.5q55 0 77.5 58.5t22.5 161.5z" />
    <glyph glyph-name="q" unicode="q" horiz-adv-x="509" 
d="M343 71q-17 -39 -49 -61t-74 -22q-48 0 -82 21t-55.5 56.5t-31 82t-9.5 97.5q0 64 13.5 112t37 80.5t55.5 48.5t69 16q44 0 74 -18.5t51 -64.5h2l5 71h90v-680h62v-30h-238v30h80v143q0 41 0.5 68t1.5 50h-2zM144 245q0 -51 4.5 -92t15 -69.5t29 -43.5t45.5 -15
q30 0 50.5 14.5t33 40t18.5 61t6 77.5v56q0 59 -10.5 96t-26 58t-33.5 28.5t-32 7.5q-30 0 -49.5 -16.5t-31 -46t-15.5 -69.5t-4 -87z" />
    <glyph glyph-name="r" unicode="r" horiz-adv-x="381" 
d="M15 30h71v430h-71v30h164v-101h2q13 48 40 80.5t73 32.5q42 0 61.5 -23.5t19.5 -67.5q0 -27 -11.5 -46t-38.5 -19q-24 0 -32.5 14.5t-8.5 35.5q0 14 1.5 23t1.5 20q0 10 -3.5 17t-16.5 7q-17 0 -33 -20.5t-28 -52t-19.5 -71t-7.5 -76.5v-213h70v-30h-234v30z" />
    <glyph glyph-name="s" unicode="s" horiz-adv-x="408" 
d="M46 172h26q1 -71 33.5 -114t93.5 -43q43 0 69 21t26 61q0 31 -18 51t-45 34.5t-58 27.5t-58 32t-45 47t-18 72q0 36 13 62.5t34.5 44t50 26t59.5 8.5q33 0 69 -7t64 -18v-125h-21q-7 59 -32.5 91.5t-79.5 32.5q-18 0 -34 -4t-29 -13t-20.5 -22.5t-7.5 -32.5
q0 -30 18 -46.5t45.5 -29t59.5 -23.5t59.5 -30.5t45.5 -50t18 -81.5q0 -78 -46.5 -116.5t-121.5 -38.5q-40 0 -78.5 9t-71.5 23v152z" />
    <glyph glyph-name="t" unicode="t" horiz-adv-x="282" 
d="M80 624h95v-134h91v-30h-91v-355q0 -37 5 -55t28 -18q22 0 34.5 14t22.5 33l21 -14q-16 -30 -40.5 -51.5t-68.5 -21.5q-28 0 -46.5 8.5t-30 23.5t-16 36t-4.5 47v353h-68v30h68v134z" />
    <glyph glyph-name="u" unicode="u" horiz-adv-x="532" 
d="M452 30h70v-30h-164v83h-2q-22 -50 -59 -72.5t-87 -22.5q-63 0 -96 33t-33 114v325h-66v30h161v-359q0 -52 14.5 -78t52.5 -26q27 0 48.5 14t35.5 37.5t21.5 55.5t7.5 68v258h-73v30h169v-460z" />
    <glyph glyph-name="v" unicode="v" horiz-adv-x="473" 
d="M229 263q16 -46 25 -77.5t14 -56.5h2q7 25 17 56.5t25 76.5l66 198h-64v30h157v-30h-54l-165 -467h-30l-164 467h-56v30h237v-30h-77z" />
    <glyph glyph-name="w" unicode="w" horiz-adv-x="713" 
d="M213 -7l-152 467h-56v30h237v-30h-76l56 -187q14 -47 22 -79t13 -57h2q11 47 42 136l73 217h30l75 -217q15 -44 24.5 -77.5t15.5 -58.5h2q6 25 15 57t23 78l57 188h-75v30h167v-30h-54l-148 -467h-30l-70 210q-14 43 -26.5 84.5t-17.5 66.5h-2q-7 -25 -20 -65t-27 -85
l-69 -211h-31z" />
    <glyph glyph-name="x" unicode="x" horiz-adv-x="463" 
d="M232 148q-8 15 -15.5 31.5t-11.5 25.5h-1q-5 -8 -14.5 -25.5t-18.5 -31.5l-72 -118h76v-30h-173v30h56l126 201l-122 229h-56v30h234v-30h-69l59 -113q16 -31 21 -46h2q4 8 10.5 19.5t14.5 25.5l68 114h-61v30h154v-30h-53l-115 -188l129 -242h61v-30h-238v30h70z" />
    <glyph glyph-name="y" unicode="y" horiz-adv-x="469" 
d="M226 271q14 -47 23.5 -78t15.5 -56h2q7 25 17.5 56.5l25.5 76.5l63 190h-63v30h157v-30h-56l-155 -453l-12 -46q-11 -42 -22 -77t-26 -60.5t-37.5 -39.5t-55.5 -14q-38 0 -63 21.5t-25 57.5q0 27 10.5 42t32.5 15q25 0 33.5 -13t8.5 -30q0 -5 -1.5 -14.5t-1.5 -14.5
q0 -10 5 -18t22 -8q13 0 24 6t20.5 22t19 43t20.5 69l12 48l-162 464h-56v30h237v-30h-71z" />
    <glyph glyph-name="z" unicode="z" horiz-adv-x="425" 
d="M54 490h325l9 -18l-263 -446h86q47 0 75 11t42.5 32t19 51.5t5.5 69.5h31v-190h-362l-9 17l262 446h-87q-29 0 -48.5 -8t-31.5 -25.5t-18 -44t-8 -62.5h-28v167z" />
    </font>
</defs>
</svg>
