<svg width="500" height="540" viewBox="0 0 500 540" fill="none" xmlns="http://www.w3.org/2000/svg">
<rect y="40" width="500" height="500" fill="white"/>
<path d="M356.179 472C350.739 472 343.699 465.6 335.059 452.8C326.739 439.68 314.739 419.2 299.059 391.36C297.139 387.84 291.699 378.4 282.739 363.04C274.099 347.36 265.939 333.92 258.259 322.72C250.899 311.52 244.339 302.72 238.579 296.32L190.099 351.04V443.68L233.779 448.48V472H98.8994V448.48L138.739 443.68V145.12L99.3794 139.36V115.36H229.939V139.36L190.099 145.12V313.12L331.219 145.12L290.899 139.36V115.36H409.459V139.36L372.499 145.12L268.819 261.28C280.019 270.88 291.859 284.8 304.339 303.04C317.139 321.28 332.659 344.8 350.899 373.6C366.579 398.24 377.939 415.84 384.979 426.4C392.339 436.64 398.099 442.24 402.259 443.2L424.819 448.48V472H356.179Z" fill="#3D3F43"/>
<rect x="300" y="340" width="200" height="200" fill="#EDD888"/>
</svg>
